<svg width="588" height="216" viewBox="0 0 588 216" fill="none" xmlns="http://www.w3.org/2000/svg">
<path d="M24.8916 57.3516C29.4853 58.1953 33.6806 58.2891 37.4775 57.6328C41.3213 56.9297 44.6025 55.4766 47.3213 53.2734C50.0869 51.0234 52.2197 48 53.7197 44.2031C55.2666 40.4062 56.04 35.7656 56.04 30.2812C56.04 26.4844 55.6416 23.0391 54.8447 19.9453C54.0478 16.8047 52.8525 14.1563 51.2588 12C49.7119 9.79688 47.7431 8.10938 45.3525 6.9375C42.9619 5.71875 40.1728 5.10938 36.9853 5.10938C34.9697 5.10938 33.2119 5.20312 31.7119 5.39062C30.2119 5.53125 28.9463 5.69531 27.915 5.88281C26.6963 6.11719 25.6884 6.375 24.8916 6.65625V57.3516ZM10.0556 1.17188C10.9931 1.26562 11.9775 1.35938 13.0088 1.45312C13.8994 1.54687 14.8838 1.61719 15.9619 1.66406C17.0869 1.66406 18.2353 1.66406 19.4072 1.66406C21.2353 1.66406 23.6963 1.45312 26.79 1.03125C29.9306 0.5625 33.915 0.328125 38.7431 0.328125C43.2431 0.328125 47.3916 0.984375 51.1884 2.29688C55.0322 3.60938 58.3603 5.53125 61.1728 8.0625C63.9853 10.5938 66.165 13.6875 67.7119 17.3438C69.3056 20.9531 70.1025 25.0781 70.1025 29.7188C70.1025 35.9531 68.8603 41.3438 66.3759 45.8906C63.8916 50.4375 60.5634 54.1172 56.3916 56.9297C52.2197 59.7422 47.415 61.6641 41.9775 62.6953C36.54 63.6797 30.8447 63.7266 24.8916 62.8359V74.5078C24.8916 78.4922 24.9384 81.9844 25.0322 84.9844C25.1728 87.9375 25.3134 90.4922 25.4541 92.6484C25.6416 94.8047 25.8525 96.6094 26.0869 98.0625C26.3681 99.5156 26.6494 100.734 26.9306 101.719V102H10.0556V101.719C10.3369 100.734 10.5947 99.5156 10.8291 98.0625C11.1103 96.6094 11.3447 94.8047 11.5322 92.6484C11.7197 90.4922 11.8603 87.9375 11.9541 84.9844C12.0478 81.9844 12.0947 78.4922 12.0947 74.5078V28.7344C12.0947 24.75 12.0478 21.2812 11.9541 18.3281C11.8603 15.3281 11.7197 12.75 11.5322 10.5938C11.3447 8.39063 11.1103 6.5625 10.8291 5.10938C10.5947 3.65625 10.3369 2.4375 10.0556 1.45312V1.17188ZM107.444 103.266C102.241 103.266 97.3659 102.445 92.8191 100.805C88.2722 99.1641 84.3113 96.7734 80.9363 93.6328C77.5613 90.4453 74.8894 86.5312 72.9206 81.8906C70.9988 77.2031 70.0378 71.8594 70.0378 65.8594C70.0378 60.5625 70.9284 55.6641 72.7097 51.1641C74.4909 46.6172 76.9519 42.6797 80.0925 39.3516C83.2331 36.0234 86.8894 33.4219 91.0613 31.5469C95.28 29.6719 99.8269 28.7344 104.702 28.7344C109.53 28.7344 114.007 29.5781 118.132 31.2656C122.257 32.9062 125.819 35.3203 128.819 38.5078C131.866 41.6484 134.257 45.5625 135.991 50.25C137.772 54.8906 138.733 60.1875 138.874 66.1406C133.577 66.0469 128.28 65.9766 122.983 65.9297C117.686 65.8828 112.178 65.8594 106.46 65.8594C102.382 65.8594 98.3972 65.8828 94.5066 65.9297C90.6628 65.9766 87.1941 66.0469 84.1003 66.1406C84.3816 71.0156 85.1316 75.4219 86.3503 79.3594C87.6159 83.2969 89.3269 86.6719 91.4831 89.4844C93.6863 92.25 96.3347 94.3828 99.4284 95.8828C102.569 97.3828 106.108 98.1328 110.046 98.1328C112.764 98.1328 115.319 97.8281 117.71 97.2188C120.147 96.5625 122.35 95.6719 124.319 94.5469C126.288 93.4219 128.046 92.1094 129.593 90.6094C131.139 89.0625 132.452 87.3984 133.53 85.6172L134.374 86.0391L129.171 98.5547C126.639 99.8672 123.616 100.992 120.1 101.93C116.585 102.82 112.366 103.266 107.444 103.266ZM98.0925 60.375C102.78 60.375 107.468 60.375 112.155 60.375C116.889 60.3281 121.178 60.2344 125.022 60.0938C124.6 56.0156 123.803 52.3594 122.632 49.125C121.46 45.8906 119.96 43.1484 118.132 40.8984C116.303 38.6484 114.147 36.9141 111.663 35.6953C109.178 34.4766 106.436 33.8672 103.436 33.8672C100.718 33.8672 98.2097 34.4766 95.9128 35.6953C93.6628 36.8672 91.6941 38.5781 90.0066 40.8281C88.3191 43.0781 86.9597 45.8438 85.9284 49.125C84.8972 52.3594 84.2878 56.0625 84.1003 60.2344C86.2097 60.3281 88.4363 60.375 90.78 60.375C93.1238 60.375 95.5613 60.375 98.0925 60.375ZM148.231 57.4922C148.231 53.5078 148.161 50.0391 148.02 47.0859C147.926 44.0859 147.786 41.5078 147.598 39.3516C147.458 37.1953 147.247 35.3906 146.965 33.9375C146.731 32.4844 146.473 31.2656 146.192 30.2812V30H162.434V30.2812C162.059 31.3594 161.731 32.6719 161.45 34.2188C161.215 35.7656 161.028 37.7578 160.887 40.1953C162.622 38.7422 164.426 37.3125 166.301 35.9062C168.176 34.5 170.098 33.2578 172.067 32.1797C174.036 31.1016 176.028 30.2344 178.043 29.5781C180.106 28.9219 182.168 28.5938 184.231 28.5938C185.497 28.5938 186.598 28.6641 187.536 28.8047C188.473 28.8984 189.317 29.0625 190.067 29.2969C190.817 29.4844 191.497 29.7188 192.106 30C192.715 30.2344 193.301 30.4687 193.864 30.7031L190.418 44.1328L189.223 43.8516C188.661 41.7891 187.606 40.1484 186.059 38.9297C184.512 37.6641 182.403 37.0312 179.731 37.0312C178.278 37.0312 176.754 37.2891 175.161 37.8047C173.567 38.3203 171.95 39.0469 170.309 39.9844C168.668 40.875 167.028 41.9297 165.387 43.1484C163.747 44.3203 162.153 45.5625 160.606 46.875C160.512 48.2344 160.465 49.7109 160.465 51.3047C160.465 52.8984 160.465 54.5859 160.465 56.3672V74.5078C160.465 78.4922 160.512 81.9844 160.606 84.9844C160.7 87.9375 160.84 90.4922 161.028 92.6484C161.215 94.8047 161.426 96.6094 161.661 98.0625C161.895 99.5156 162.153 100.734 162.434 101.719V102H146.192V101.719C146.473 100.734 146.731 99.5156 146.965 98.0625C147.247 96.6094 147.458 94.8047 147.598 92.6484C147.786 90.4922 147.926 87.9375 148.02 84.9844C148.161 81.9844 148.231 78.4922 148.231 74.5078V57.4922ZM226.213 134.133C230.01 134.133 233.221 133.711 235.846 132.867C238.471 132.07 240.627 130.945 242.315 129.492C244.049 128.039 245.362 126.281 246.252 124.219C247.19 122.203 247.869 119.977 248.291 117.539C248.76 115.102 249.018 112.5 249.065 109.734C249.158 106.969 249.205 104.109 249.205 101.156V98.8359C246.908 100.055 244.143 101.109 240.908 102C237.674 102.844 234.018 103.266 229.94 103.266C224.362 103.266 219.299 102.398 214.752 100.664C210.205 98.9297 206.315 96.4453 203.08 93.2109C199.893 89.9766 197.432 86.0625 195.698 81.4688C193.963 76.8281 193.096 71.625 193.096 65.8594C193.096 60.5625 193.94 55.6406 195.627 51.0938C197.362 46.5469 199.776 42.6094 202.869 39.2812C206.01 35.9531 209.737 33.3516 214.049 31.4766C218.408 29.5547 223.213 28.5938 228.463 28.5938C230.713 28.5938 232.776 28.7813 234.651 29.1562C236.526 29.5312 238.26 30.0469 239.854 30.7031C241.494 31.3125 243.018 32.0391 244.424 32.8828C245.877 33.6797 247.283 34.5469 248.643 35.4844L247.94 30.2812V30H263.479V30.2812C263.198 31.2656 262.916 32.4844 262.635 33.9375C262.401 35.3906 262.19 37.1953 262.002 39.3516C261.862 41.5078 261.721 44.0859 261.58 47.0859C261.487 50.0391 261.44 53.5078 261.44 57.4922V105.305C261.44 109.617 260.854 113.812 259.682 117.891C258.557 122.016 256.612 125.672 253.846 128.859C251.127 132.047 247.518 134.602 243.018 136.523C238.518 138.445 232.916 139.406 226.213 139.406C223.869 139.406 221.502 139.172 219.112 138.703C216.721 138.281 214.448 137.742 212.291 137.086C210.135 136.477 208.19 135.797 206.455 135.047C204.721 134.297 203.338 133.641 202.307 133.078L200.127 119.578L201.252 119.297C202.377 121.734 203.901 123.867 205.823 125.695C207.791 127.57 209.924 129.117 212.221 130.336C214.518 131.602 216.885 132.539 219.323 133.148C221.807 133.805 224.104 134.133 226.213 134.133ZM233.104 98.1328C236.479 98.1328 239.526 97.5703 242.244 96.4453C245.01 95.3203 247.33 94.0078 249.205 92.5078V57.4922C249.205 54.8672 249.182 52.5 249.135 50.3906C249.088 48.2344 249.065 46.2891 249.065 44.5547C247.94 42.8203 246.627 41.2969 245.127 39.9844C243.674 38.625 242.104 37.5 240.416 36.6094C238.776 35.6719 237.088 34.9688 235.354 34.5C233.619 33.9844 231.908 33.7266 230.221 33.7266C226.658 33.7266 223.448 34.3828 220.588 35.6953C217.729 37.0078 215.291 38.9062 213.276 41.3906C211.307 43.8281 209.783 46.8281 208.705 50.3906C207.674 53.9062 207.158 57.9141 207.158 62.4141C207.158 67.4766 207.721 72.1875 208.846 76.5469C209.971 80.9062 211.612 84.7031 213.768 87.9375C215.971 91.125 218.69 93.6328 221.924 95.4609C225.158 97.2422 228.885 98.1328 233.104 98.1328ZM289.148 77.3906C289.148 83.5781 290.367 88.125 292.805 91.0312C295.289 93.9375 298.617 95.3906 302.789 95.3906C304.289 95.3906 305.977 95.0859 307.852 94.4766C309.727 93.8203 311.648 92.9766 313.617 91.9453C315.633 90.8672 317.625 89.625 319.594 88.2188C321.609 86.8125 323.461 85.3125 325.148 83.7188C325.242 82.3594 325.289 80.9297 325.289 79.4297C325.289 77.8828 325.289 76.2422 325.289 74.5078V57.4922C325.289 53.5078 325.219 50.0391 325.078 47.0859C324.984 44.0859 324.844 41.5078 324.656 39.3516C324.516 37.1953 324.305 35.3906 324.023 33.9375C323.789 32.4844 323.531 31.2656 323.25 30.2812V30H339.492V30.2812C339.211 31.2656 338.953 32.4844 338.719 33.9375C338.484 35.3906 338.273 37.1953 338.086 39.3516C337.898 41.5078 337.758 44.0859 337.664 47.0859C337.57 50.0391 337.523 53.5078 337.523 57.4922V74.5078C337.523 78.4922 337.57 81.9844 337.664 84.9844C337.758 87.9375 337.898 90.4922 338.086 92.6484C338.273 94.8047 338.484 96.6094 338.719 98.0625C338.953 99.5156 339.211 100.734 339.492 101.719V102H323.25V101.719C323.531 100.547 323.812 99.0469 324.094 97.2188C324.422 95.3906 324.656 93 324.797 90.0469C322.875 91.6875 320.789 93.3047 318.539 94.8984C316.336 96.4922 314.016 97.9219 311.578 99.1875C309.188 100.453 306.75 101.461 304.266 102.211C301.828 103.008 299.414 103.406 297.023 103.406C293.367 103.406 290.25 102.773 287.672 101.508C285.141 100.242 283.055 98.5781 281.414 96.5156C279.82 94.4531 278.648 92.1094 277.898 89.4844C277.195 86.8594 276.844 84.1641 276.844 81.3984V57.4922C276.844 53.5078 276.797 50.0391 276.703 47.0859C276.609 44.0859 276.469 41.5078 276.281 39.3516C276.094 37.1953 275.883 35.3906 275.648 33.9375C275.414 32.4844 275.156 31.2656 274.875 30.2812V30H291.117V30.2812C290.836 31.2656 290.578 32.4844 290.344 33.9375C290.109 35.3906 289.898 37.1953 289.711 39.3516C289.523 41.5078 289.383 44.0859 289.289 47.0859C289.195 50.0391 289.148 53.5078 289.148 57.4922V77.3906ZM401.795 54.6094C401.795 48.4219 400.553 43.875 398.068 40.9688C395.584 38.0625 392.256 36.6094 388.084 36.6094C386.584 36.6094 384.896 36.9375 383.021 37.5938C381.146 38.2031 379.224 39.0469 377.256 40.125C375.287 41.1562 373.318 42.375 371.349 43.7812C369.381 45.1875 367.529 46.6875 365.795 48.2812L365.654 57.4922V74.5078C365.654 78.4922 365.701 81.9844 365.795 84.9844C365.888 87.9375 366.029 90.4922 366.217 92.6484C366.404 94.8047 366.615 96.6094 366.849 98.0625C367.084 99.5156 367.342 100.734 367.623 101.719V102H351.381V101.719C351.662 100.734 351.92 99.5156 352.154 98.0625C352.435 96.6094 352.646 94.8047 352.787 92.6484C352.974 90.4922 353.115 87.9375 353.209 84.9844C353.349 81.9844 353.42 78.4922 353.42 74.5078V57.4922C353.42 53.5078 353.349 50.0391 353.209 47.0859C353.115 44.0859 352.974 41.5078 352.787 39.3516C352.646 37.1953 352.435 35.3906 352.154 33.9375C351.92 32.4844 351.662 31.2656 351.381 30.2812V30H367.623V30.2812C367.248 31.4531 366.943 32.9531 366.709 34.7812C366.521 36.5625 366.31 38.9062 366.076 41.8125C367.998 40.2188 370.06 38.625 372.263 37.0312C374.513 35.4375 376.834 34.0312 379.224 32.8125C381.615 31.5469 384.053 30.5391 386.537 29.7891C389.021 28.9922 391.459 28.5938 393.849 28.5938C397.506 28.5938 400.599 29.2266 403.131 30.4922C405.709 31.7578 407.795 33.4219 409.388 35.4844C411.029 37.5469 412.201 39.9141 412.904 42.5859C413.654 45.2109 414.029 47.8828 414.029 50.6016V74.5078C414.029 78.4922 414.076 81.9844 414.17 84.9844C414.263 87.9375 414.404 90.4922 414.592 92.6484C414.779 94.8047 414.99 96.6094 415.224 98.0625C415.459 99.5156 415.717 100.734 415.998 101.719V102H399.756V101.719C400.037 100.734 400.295 99.5156 400.529 98.0625C400.81 96.6094 401.021 94.8047 401.162 92.6484C401.349 90.4922 401.49 87.9375 401.584 84.9844C401.724 81.9844 401.795 78.4922 401.795 74.5078V54.6094ZM454.957 97.8516C456.363 97.8516 457.746 97.5938 459.105 97.0781C460.511 96.5625 461.847 95.8594 463.113 94.9688C464.425 94.0781 465.668 93.0703 466.839 91.9453C468.058 90.7734 469.183 89.5547 470.214 88.2891L470.918 88.6406L466.347 99.9609C465.785 100.242 465.082 100.594 464.238 101.016C463.441 101.391 462.457 101.742 461.285 102.07C460.16 102.445 458.824 102.75 457.277 102.984C455.73 103.266 453.902 103.406 451.793 103.406C445.511 103.406 440.613 101.719 437.097 98.3438C433.628 94.9219 431.894 89.6016 431.894 82.3828V35.4844L420.082 35.9062V29.7188C421.535 29.8125 423.269 29.8828 425.285 29.9297C427.3 29.9766 429.503 30 431.894 30C431.847 26.6719 431.753 23.7422 431.613 21.2109C431.519 18.6328 431.378 16.4063 431.191 14.5312C431.05 12.6094 430.863 10.9922 430.628 9.67969C430.394 8.36719 430.16 7.26563 429.925 6.375V6.09375H446.168V6.375C445.886 7.26563 445.628 8.36719 445.394 9.67969C445.16 10.9922 444.949 12.5859 444.761 14.4609C444.621 16.3359 444.48 18.5625 444.339 21.1406C444.246 23.6719 444.175 26.625 444.128 30C447.082 29.9531 449.964 29.9063 452.777 29.8594C455.636 29.7656 458.214 29.6719 460.511 29.5781C462.855 29.4375 464.824 29.3203 466.418 29.2266C468.058 29.0859 469.136 28.9687 469.652 28.875L468.386 36.0469C465.996 36 463.488 35.9297 460.863 35.8359C458.613 35.7422 456.035 35.6719 453.128 35.625C450.222 35.5781 447.222 35.5312 444.128 35.4844V83.8594C444.128 86.7656 444.433 89.1328 445.043 90.9609C445.699 92.7422 446.519 94.1484 447.503 95.1797C448.535 96.2109 449.683 96.9141 450.949 97.2891C452.261 97.6641 453.597 97.8516 454.957 97.8516ZM473.384 81.2578C473.384 77.5547 474.134 74.3438 475.634 71.625C477.181 68.9062 479.22 66.5859 481.751 64.6641C484.283 62.7422 487.165 61.1953 490.4 60.0234C493.634 58.8047 496.986 57.8672 500.454 57.2109C503.923 56.5078 507.345 56.0391 510.72 55.8047C514.095 55.5234 517.189 55.3594 520.001 55.3125V51.7266C520.001 48.6328 519.603 45.9609 518.806 43.7109C518.009 41.4609 516.884 39.6094 515.431 38.1562C513.978 36.6562 512.22 35.5547 510.158 34.8516C508.142 34.1016 505.915 33.7266 503.478 33.7266C501.79 33.7266 500.126 33.8672 498.486 34.1484C496.845 34.4297 495.134 34.8984 493.353 35.5547C491.618 36.2109 489.767 37.1016 487.798 38.2266C485.876 39.3516 483.79 40.7812 481.54 42.5156L480.837 42.0938L485.618 32.1797C487.165 31.4766 488.689 30.9141 490.189 30.4922C491.689 30.0234 493.212 29.6484 494.759 29.3672C496.306 29.0859 497.876 28.8984 499.47 28.8047C501.111 28.6641 502.822 28.5938 504.603 28.5938C509.525 28.5938 513.72 29.2031 517.189 30.4219C520.704 31.5937 523.564 33.2344 525.767 35.3438C528.017 37.4062 529.658 39.8438 530.689 42.6562C531.72 45.4219 532.236 48.3984 532.236 51.5859V74.5078C532.236 78.4922 532.283 81.9844 532.376 84.9844C532.517 87.9375 532.658 90.4922 532.798 92.6484C532.986 94.8047 533.197 96.6094 533.431 98.0625C533.712 99.5156 533.993 100.734 534.275 101.719V102H518.736V101.719C518.97 100.969 519.134 100.125 519.228 99.1875C519.368 98.25 519.486 97.125 519.579 95.8125C518.595 96.6562 517.423 97.5234 516.064 98.4141C514.751 99.3047 513.228 100.125 511.493 100.875C509.806 101.578 507.908 102.141 505.798 102.562C503.736 103.031 501.462 103.266 498.978 103.266C490.822 103.266 484.517 101.367 480.064 97.5703C475.611 93.7266 473.384 88.2891 473.384 81.2578ZM520.001 60.7969C515.736 60.8438 511.634 61.1016 507.697 61.5703C503.759 61.9922 500.267 62.9062 497.22 64.3125C494.22 65.7188 491.806 67.7344 489.978 70.3594C488.197 72.9375 487.306 76.3828 487.306 80.6953C487.306 86.2266 488.689 90.4453 491.454 93.3516C494.22 96.2578 498.04 97.7109 502.915 97.7109C505.165 97.7109 507.204 97.4062 509.033 96.7969C510.908 96.1406 512.548 95.3438 513.954 94.4062C515.408 93.4219 516.626 92.3672 517.611 91.2422C518.595 90.0703 519.345 88.9453 519.861 87.8672C519.954 86.0859 520.001 84.1172 520.001 81.9609C520.001 79.7578 520.001 77.2734 520.001 74.5078V60.7969ZM579.562 44.1328L578.577 44.2734C578.249 43.1953 577.71 42.0469 576.96 40.8281C576.257 39.6094 575.319 38.4844 574.147 37.4531C573.022 36.4219 571.64 35.5781 569.999 34.9219C568.405 34.2188 566.554 33.8672 564.444 33.8672C562.991 33.8672 561.608 34.0781 560.296 34.5C559.03 34.9219 557.905 35.5547 556.921 36.3984C555.983 37.1953 555.233 38.2031 554.671 39.4219C554.108 40.6406 553.827 42.0703 553.827 43.7109C553.827 46.0078 554.53 48.2109 555.937 50.3203C557.39 52.3828 559.194 54.4453 561.351 56.5078C563.507 58.5234 565.827 60.5625 568.312 62.625C570.843 64.6875 573.187 66.8438 575.343 69.0938C577.499 71.3438 579.28 73.7578 580.687 76.3359C582.14 78.8672 582.866 81.6094 582.866 84.5625C582.866 86.9531 582.444 89.2969 581.601 91.5938C580.757 93.8438 579.444 95.8594 577.663 97.6406C575.929 99.4219 573.679 100.875 570.913 102C568.194 103.078 564.937 103.617 561.14 103.617C558.89 103.617 556.78 103.406 554.812 102.984C552.89 102.562 551.108 102.047 549.468 101.438C547.874 100.781 546.421 100.078 545.108 99.3281C543.843 98.5312 542.718 97.7812 541.733 97.0781L542.437 83.7188H543.562C544.03 85.9219 544.733 87.9375 545.671 89.7656C546.608 91.5938 547.757 93.1641 549.116 94.4766C550.522 95.7422 552.116 96.75 553.897 97.5C555.679 98.2031 557.624 98.5547 559.733 98.5547C563.202 98.5547 565.944 97.5938 567.96 95.6719C570.022 93.75 571.054 91.2422 571.054 88.1484C571.054 85.6641 570.351 83.3906 568.944 81.3281C567.585 79.2188 565.851 77.2031 563.741 75.2812C561.632 73.3594 559.358 71.4375 556.921 69.5156C554.53 67.5938 552.28 65.5547 550.171 63.3984C548.062 61.1953 546.304 58.8047 544.897 56.2266C543.538 53.6016 542.858 50.625 542.858 47.2969C542.858 44.5781 543.351 42.0938 544.335 39.8438C545.366 37.5469 546.772 35.6016 548.554 34.0078C550.382 32.3672 552.538 31.1016 555.022 30.2109C557.507 29.3203 560.226 28.875 563.179 28.875C567.069 28.875 570.304 29.2969 572.882 30.1406C575.507 30.9375 577.499 31.7109 578.858 32.4609L579.562 44.1328Z" fill="#FF7571"/>
<path d="M304.397 143.094L303.975 143.281C301.537 141.031 298.6 139.234 295.162 137.891C291.756 136.547 288.006 135.875 283.912 135.875C279.975 135.875 276.366 136.5 273.084 137.75C269.803 138.969 266.975 140.75 264.6 143.094C262.256 145.438 260.428 148.312 259.116 151.719C257.803 155.125 257.147 159 257.147 163.344C257.147 168.125 257.772 172.594 259.022 176.75C260.272 180.875 262.131 184.453 264.6 187.484C267.069 190.516 270.147 192.906 273.834 194.656C277.553 196.375 281.881 197.234 286.819 197.234C288.6 197.234 290.381 197.047 292.162 196.672C293.944 196.297 295.647 195.75 297.272 195.031C298.928 194.281 300.475 193.391 301.912 192.359C303.381 191.297 304.709 190.094 305.897 188.75L306.412 189.078L302.662 198.641C300.319 199.547 297.725 200.234 294.881 200.703C292.069 201.203 289.225 201.453 286.35 201.453C280.569 201.453 275.272 200.625 270.459 198.969C265.678 197.281 261.553 194.906 258.084 191.844C254.647 188.781 251.959 185.109 250.022 180.828C248.116 176.516 247.162 171.734 247.162 166.484C247.162 163.516 247.537 160.594 248.287 157.719C249.069 154.844 250.194 152.109 251.662 149.516C253.131 146.922 254.944 144.547 257.1 142.391C259.256 140.203 261.709 138.312 264.459 136.719C267.241 135.125 270.287 133.891 273.6 133.016C276.944 132.109 280.553 131.656 284.428 131.656C290.459 131.656 296.053 132.578 301.209 134.422L304.397 143.094ZM307.916 186.172C307.916 183.703 308.416 181.562 309.416 179.75C310.447 177.938 311.807 176.391 313.494 175.109C315.182 173.828 317.104 172.797 319.26 172.016C321.416 171.203 323.651 170.578 325.963 170.141C328.276 169.672 330.557 169.359 332.807 169.203C335.057 169.016 337.119 168.906 338.994 168.875V166.484C338.994 164.422 338.729 162.641 338.197 161.141C337.666 159.641 336.916 158.406 335.947 157.438C334.979 156.438 333.807 155.703 332.432 155.234C331.088 154.734 329.604 154.484 327.979 154.484C326.854 154.484 325.744 154.578 324.651 154.766C323.557 154.953 322.416 155.266 321.229 155.703C320.072 156.141 318.838 156.734 317.526 157.484C316.244 158.234 314.854 159.188 313.354 160.344L312.885 160.062L316.072 153.453C317.104 152.984 318.119 152.609 319.119 152.328C320.119 152.016 321.135 151.766 322.166 151.578C323.197 151.391 324.244 151.266 325.307 151.203C326.401 151.109 327.541 151.062 328.729 151.062C332.01 151.062 334.807 151.469 337.119 152.281C339.463 153.062 341.369 154.156 342.838 155.562C344.338 156.938 345.432 158.562 346.119 160.438C346.807 162.281 347.151 164.266 347.151 166.391V181.672C347.151 184.328 347.182 186.656 347.244 188.656C347.338 190.625 347.432 192.328 347.526 193.766C347.651 195.203 347.791 196.406 347.947 197.375C348.135 198.344 348.322 199.156 348.51 199.812V200H338.151V199.812C338.307 199.312 338.416 198.75 338.479 198.125C338.572 197.5 338.651 196.75 338.713 195.875C338.057 196.438 337.276 197.016 336.369 197.609C335.494 198.203 334.479 198.75 333.322 199.25C332.197 199.719 330.932 200.094 329.526 200.375C328.151 200.688 326.635 200.844 324.979 200.844C319.541 200.844 315.338 199.578 312.369 197.047C309.401 194.484 307.916 190.859 307.916 186.172ZM338.994 172.531C336.151 172.562 333.416 172.734 330.791 173.047C328.166 173.328 325.838 173.938 323.807 174.875C321.807 175.812 320.197 177.156 318.979 178.906C317.791 180.625 317.197 182.922 317.197 185.797C317.197 189.484 318.119 192.297 319.963 194.234C321.807 196.172 324.354 197.141 327.604 197.141C329.104 197.141 330.463 196.938 331.682 196.531C332.932 196.094 334.026 195.562 334.963 194.938C335.932 194.281 336.744 193.578 337.401 192.828C338.057 192.047 338.557 191.297 338.901 190.578C338.963 189.391 338.994 188.078 338.994 186.641C338.994 185.172 338.994 183.516 338.994 181.672V172.531ZM378.701 161.422L378.045 161.516C377.826 160.797 377.467 160.031 376.967 159.219C376.498 158.406 375.873 157.656 375.092 156.969C374.342 156.281 373.42 155.719 372.326 155.281C371.264 154.812 370.029 154.578 368.623 154.578C367.654 154.578 366.732 154.719 365.857 155C365.014 155.281 364.264 155.703 363.607 156.266C362.982 156.797 362.482 157.469 362.107 158.281C361.732 159.094 361.545 160.047 361.545 161.141C361.545 162.672 362.014 164.141 362.951 165.547C363.92 166.922 365.123 168.297 366.561 169.672C367.998 171.016 369.545 172.375 371.201 173.75C372.889 175.125 374.451 176.562 375.889 178.062C377.326 179.562 378.514 181.172 379.451 182.891C380.42 184.578 380.904 186.406 380.904 188.375C380.904 189.969 380.623 191.531 380.061 193.062C379.498 194.562 378.623 195.906 377.436 197.094C376.279 198.281 374.779 199.25 372.936 200C371.123 200.719 368.951 201.078 366.42 201.078C364.92 201.078 363.514 200.938 362.201 200.656C360.92 200.375 359.732 200.031 358.639 199.625C357.576 199.188 356.607 198.719 355.732 198.219C354.889 197.688 354.139 197.188 353.482 196.719L353.951 187.812H354.701C355.014 189.281 355.482 190.625 356.107 191.844C356.732 193.062 357.498 194.109 358.404 194.984C359.342 195.828 360.404 196.5 361.592 197C362.779 197.469 364.076 197.703 365.482 197.703C367.795 197.703 369.623 197.062 370.967 195.781C372.342 194.5 373.029 192.828 373.029 190.766C373.029 189.109 372.561 187.594 371.623 186.219C370.717 184.812 369.561 183.469 368.154 182.188C366.748 180.906 365.232 179.625 363.607 178.344C362.014 177.062 360.514 175.703 359.107 174.266C357.701 172.797 356.529 171.203 355.592 169.484C354.686 167.734 354.232 165.75 354.232 163.531C354.232 161.719 354.561 160.062 355.217 158.562C355.904 157.031 356.842 155.734 358.029 154.672C359.248 153.578 360.686 152.734 362.342 152.141C363.998 151.547 365.811 151.25 367.779 151.25C370.373 151.25 372.529 151.531 374.248 152.094C375.998 152.625 377.326 153.141 378.232 153.641L378.701 161.422ZM383.955 186.172C383.955 183.703 384.455 181.562 385.455 179.75C386.486 177.938 387.846 176.391 389.533 175.109C391.221 173.828 393.142 172.797 395.299 172.016C397.455 171.203 399.689 170.578 402.002 170.141C404.314 169.672 406.596 169.359 408.846 169.203C411.096 169.016 413.158 168.906 415.033 168.875V166.484C415.033 164.422 414.767 162.641 414.236 161.141C413.705 159.641 412.955 158.406 411.986 157.438C411.017 156.438 409.846 155.703 408.471 155.234C407.127 154.734 405.642 154.484 404.017 154.484C402.892 154.484 401.783 154.578 400.689 154.766C399.596 154.953 398.455 155.266 397.267 155.703C396.111 156.141 394.877 156.734 393.564 157.484C392.283 158.234 390.892 159.188 389.392 160.344L388.924 160.062L392.111 153.453C393.142 152.984 394.158 152.609 395.158 152.328C396.158 152.016 397.174 151.766 398.205 151.578C399.236 151.391 400.283 151.266 401.346 151.203C402.439 151.109 403.58 151.062 404.767 151.062C408.049 151.062 410.846 151.469 413.158 152.281C415.502 153.062 417.408 154.156 418.877 155.562C420.377 156.938 421.471 158.562 422.158 160.438C422.846 162.281 423.189 164.266 423.189 166.391V181.672C423.189 184.328 423.221 186.656 423.283 188.656C423.377 190.625 423.471 192.328 423.564 193.766C423.689 195.203 423.83 196.406 423.986 197.375C424.174 198.344 424.361 199.156 424.549 199.812V200H414.189V199.812C414.346 199.312 414.455 198.75 414.517 198.125C414.611 197.5 414.689 196.75 414.752 195.875C414.096 196.438 413.314 197.016 412.408 197.609C411.533 198.203 410.517 198.75 409.361 199.25C408.236 199.719 406.971 200.094 405.564 200.375C404.189 200.688 402.674 200.844 401.017 200.844C395.58 200.844 391.377 199.578 388.408 197.047C385.439 194.484 383.955 190.859 383.955 186.172ZM415.033 172.531C412.189 172.562 409.455 172.734 406.83 173.047C404.205 173.328 401.877 173.938 399.846 174.875C397.846 175.812 396.236 177.156 395.017 178.906C393.83 180.625 393.236 182.922 393.236 185.797C393.236 189.484 394.158 192.297 396.002 194.234C397.846 196.172 400.392 197.141 403.642 197.141C405.142 197.141 406.502 196.938 407.721 196.531C408.971 196.094 410.064 195.562 411.002 194.938C411.971 194.281 412.783 193.578 413.439 192.828C414.096 192.047 414.596 191.297 414.939 190.578C415.002 189.391 415.033 188.078 415.033 186.641C415.033 185.172 415.033 183.516 415.033 181.672V172.531ZM433.834 170.328C433.834 167.672 433.787 165.359 433.693 163.391C433.631 161.391 433.537 159.672 433.412 158.234C433.318 156.797 433.177 155.594 432.99 154.625C432.834 153.656 432.662 152.844 432.474 152.188V152H443.302V152.188C443.115 152.844 442.943 153.656 442.787 154.625C442.631 155.594 442.49 156.797 442.365 158.234C442.24 159.672 442.146 161.391 442.084 163.391C442.021 165.359 441.99 167.672 441.99 170.328V181.672C441.99 184.328 442.021 186.656 442.084 188.656C442.146 190.625 442.24 192.328 442.365 193.766C442.49 195.203 442.631 196.406 442.787 197.375C442.943 198.344 443.115 199.156 443.302 199.812V200H432.474V199.812C432.662 199.156 432.834 198.344 432.99 197.375C433.177 196.406 433.318 195.203 433.412 193.766C433.537 192.328 433.631 190.625 433.693 188.656C433.787 186.656 433.834 184.328 433.834 181.672V170.328ZM432.849 137.797C432.849 137.109 432.974 136.469 433.224 135.875C433.506 135.25 433.865 134.719 434.302 134.281C434.74 133.812 435.256 133.453 435.849 133.203C436.474 132.922 437.146 132.781 437.865 132.781C438.584 132.781 439.24 132.922 439.834 133.203C440.459 133.453 440.99 133.812 441.427 134.281C441.896 134.719 442.256 135.25 442.506 135.875C442.787 136.469 442.927 137.109 442.927 137.797C442.927 139.234 442.443 140.438 441.474 141.406C440.506 142.375 439.302 142.859 437.865 142.859C437.146 142.859 436.474 142.734 435.849 142.484C435.256 142.203 434.74 141.844 434.302 141.406C433.865 140.938 433.506 140.406 433.224 139.812C432.974 139.188 432.849 138.516 432.849 137.797ZM474.056 161.422L473.4 161.516C473.181 160.797 472.822 160.031 472.322 159.219C471.853 158.406 471.228 157.656 470.447 156.969C469.697 156.281 468.775 155.719 467.681 155.281C466.619 154.812 465.384 154.578 463.978 154.578C463.009 154.578 462.087 154.719 461.212 155C460.369 155.281 459.619 155.703 458.962 156.266C458.337 156.797 457.837 157.469 457.462 158.281C457.087 159.094 456.9 160.047 456.9 161.141C456.9 162.672 457.369 164.141 458.306 165.547C459.275 166.922 460.478 168.297 461.916 169.672C463.353 171.016 464.9 172.375 466.556 173.75C468.244 175.125 469.806 176.562 471.244 178.062C472.681 179.562 473.869 181.172 474.806 182.891C475.775 184.578 476.259 186.406 476.259 188.375C476.259 189.969 475.978 191.531 475.416 193.062C474.853 194.562 473.978 195.906 472.791 197.094C471.634 198.281 470.134 199.25 468.291 200C466.478 200.719 464.306 201.078 461.775 201.078C460.275 201.078 458.869 200.938 457.556 200.656C456.275 200.375 455.087 200.031 453.994 199.625C452.931 199.188 451.962 198.719 451.087 198.219C450.244 197.688 449.494 197.188 448.837 196.719L449.306 187.812H450.056C450.369 189.281 450.837 190.625 451.462 191.844C452.087 193.062 452.853 194.109 453.759 194.984C454.697 195.828 455.759 196.5 456.947 197C458.134 197.469 459.431 197.703 460.837 197.703C463.15 197.703 464.978 197.062 466.322 195.781C467.697 194.5 468.384 192.828 468.384 190.766C468.384 189.109 467.916 187.594 466.978 186.219C466.072 184.812 464.916 183.469 463.509 182.188C462.103 180.906 460.587 179.625 458.962 178.344C457.369 177.062 455.869 175.703 454.462 174.266C453.056 172.797 451.884 171.203 450.947 169.484C450.041 167.734 449.587 165.75 449.587 163.531C449.587 161.719 449.916 160.062 450.572 158.562C451.259 157.031 452.197 155.734 453.384 154.672C454.603 153.578 456.041 152.734 457.697 152.141C459.353 151.547 461.166 151.25 463.134 151.25C465.728 151.25 467.884 151.531 469.603 152.094C471.353 152.625 472.681 153.141 473.587 153.641L474.056 161.422Z" fill="#FF7571"/>
<path d="M111.934 179.594C111.934 177.823 111.903 176.281 111.84 174.969C111.798 173.635 111.736 172.49 111.653 171.531C111.59 170.573 111.496 169.771 111.371 169.125C111.267 168.479 111.153 167.938 111.028 167.5V167.375H118.246V167.5C118.142 167.812 118.048 168.167 117.965 168.562C117.882 168.958 117.809 169.406 117.746 169.906C118.975 169.198 120.33 168.604 121.809 168.125C123.309 167.625 124.965 167.375 126.778 167.375C129.09 167.375 131.194 167.771 133.09 168.562C135.007 169.333 136.642 170.448 137.996 171.906C139.371 173.365 140.434 175.125 141.184 177.188C141.934 179.25 142.309 181.562 142.309 184.125C142.309 186.271 141.934 188.333 141.184 190.312C140.455 192.292 139.371 194.042 137.934 195.562C136.517 197.083 134.767 198.302 132.684 199.219C130.6 200.115 128.205 200.562 125.496 200.562C123.871 200.562 122.392 200.438 121.059 200.188C119.725 199.938 118.496 199.615 117.371 199.219V203.781C117.371 205.552 117.392 207.094 117.434 208.406C117.475 209.74 117.538 210.885 117.621 211.844C117.705 212.802 117.798 213.604 117.903 214.25C118.007 214.896 118.121 215.438 118.246 215.875V216H111.028V215.875C111.153 215.438 111.267 214.896 111.371 214.25C111.496 213.604 111.59 212.802 111.653 211.844C111.736 210.885 111.798 209.74 111.84 208.406C111.903 207.094 111.934 205.552 111.934 203.781V179.594ZM125.684 169.719C124.975 169.719 124.246 169.812 123.496 170C122.767 170.167 122.038 170.417 121.309 170.75C120.6 171.062 119.913 171.469 119.246 171.969C118.6 172.448 118.017 173 117.496 173.625C117.455 174.417 117.423 175.312 117.403 176.312C117.382 177.312 117.371 178.406 117.371 179.594V195.969C117.788 196.281 118.257 196.573 118.778 196.844C119.298 197.115 119.882 197.365 120.528 197.594C121.194 197.802 121.934 197.969 122.746 198.094C123.58 198.219 124.496 198.281 125.496 198.281C127.121 198.281 128.59 197.99 129.903 197.406C131.215 196.823 132.319 195.979 133.215 194.875C134.132 193.771 134.83 192.427 135.309 190.844C135.809 189.26 136.059 187.469 136.059 185.469C136.059 183.219 135.871 181.135 135.496 179.219C135.121 177.281 134.517 175.615 133.684 174.219C132.871 172.802 131.809 171.698 130.496 170.906C129.184 170.115 127.58 169.719 125.684 169.719ZM144.249 190.781C144.249 189.135 144.582 187.708 145.249 186.5C145.936 185.292 146.842 184.26 147.967 183.406C149.092 182.552 150.374 181.865 151.811 181.344C153.249 180.802 154.738 180.385 156.28 180.094C157.822 179.781 159.342 179.573 160.842 179.469C162.342 179.344 163.717 179.271 164.967 179.25V177.656C164.967 176.281 164.79 175.094 164.436 174.094C164.082 173.094 163.582 172.271 162.936 171.625C162.29 170.958 161.509 170.469 160.592 170.156C159.697 169.823 158.707 169.656 157.624 169.656C156.874 169.656 156.134 169.719 155.405 169.844C154.676 169.969 153.915 170.177 153.124 170.469C152.353 170.76 151.53 171.156 150.655 171.656C149.801 172.156 148.874 172.792 147.874 173.562L147.561 173.375L149.686 168.969C150.374 168.656 151.051 168.406 151.717 168.219C152.384 168.01 153.061 167.844 153.749 167.719C154.436 167.594 155.134 167.51 155.842 167.469C156.572 167.406 157.332 167.375 158.124 167.375C160.311 167.375 162.176 167.646 163.717 168.188C165.28 168.708 166.551 169.438 167.53 170.375C168.53 171.292 169.259 172.375 169.717 173.625C170.176 174.854 170.405 176.177 170.405 177.594V187.781C170.405 189.552 170.426 191.104 170.467 192.438C170.53 193.75 170.592 194.885 170.655 195.844C170.738 196.802 170.832 197.604 170.936 198.25C171.061 198.896 171.186 199.438 171.311 199.875V200H164.405V199.875C164.509 199.542 164.582 199.167 164.624 198.75C164.686 198.333 164.738 197.833 164.78 197.25C164.342 197.625 163.822 198.01 163.217 198.406C162.634 198.802 161.957 199.167 161.186 199.5C160.436 199.812 159.592 200.062 158.655 200.25C157.738 200.458 156.728 200.562 155.624 200.562C151.999 200.562 149.197 199.719 147.217 198.031C145.238 196.323 144.249 193.906 144.249 190.781ZM164.967 181.688C163.072 181.708 161.249 181.823 159.499 182.031C157.749 182.219 156.197 182.625 154.842 183.25C153.509 183.875 152.436 184.771 151.624 185.938C150.832 187.083 150.436 188.615 150.436 190.531C150.436 192.99 151.051 194.865 152.28 196.156C153.509 197.448 155.207 198.094 157.374 198.094C158.374 198.094 159.28 197.958 160.092 197.688C160.926 197.396 161.655 197.042 162.28 196.625C162.926 196.188 163.467 195.719 163.905 195.219C164.342 194.698 164.676 194.198 164.905 193.719C164.947 192.927 164.967 192.052 164.967 191.094C164.967 190.115 164.967 189.01 164.967 187.781V181.688ZM177.314 180.219C177.314 178.448 177.283 176.906 177.22 175.594C177.178 174.26 177.116 173.115 177.033 172.156C176.97 171.198 176.876 170.396 176.751 169.75C176.647 169.104 176.533 168.562 176.408 168.125V168H183.626V168.125C183.46 168.604 183.314 169.188 183.189 169.875C183.085 170.562 183.001 171.448 182.939 172.531C183.71 171.885 184.512 171.25 185.345 170.625C186.178 170 187.033 169.448 187.908 168.969C188.783 168.49 189.668 168.104 190.564 167.812C191.48 167.521 192.397 167.375 193.314 167.375C193.876 167.375 194.366 167.406 194.783 167.469C195.199 167.51 195.574 167.583 195.908 167.688C196.241 167.771 196.543 167.875 196.814 168C197.085 168.104 197.345 168.208 197.595 168.312L196.064 174.281L195.533 174.156C195.283 173.24 194.814 172.51 194.126 171.969C193.439 171.406 192.501 171.125 191.314 171.125C190.668 171.125 189.991 171.24 189.283 171.469C188.574 171.698 187.855 172.021 187.126 172.438C186.397 172.833 185.668 173.302 184.939 173.844C184.21 174.365 183.501 174.917 182.814 175.5C182.772 176.104 182.751 176.76 182.751 177.469C182.751 178.177 182.751 178.927 182.751 179.719V187.781C182.751 189.552 182.772 191.104 182.814 192.438C182.855 193.75 182.918 194.885 183.001 195.844C183.085 196.802 183.178 197.604 183.283 198.25C183.387 198.896 183.501 199.438 183.626 199.875V200H176.408V199.875C176.533 199.438 176.647 198.896 176.751 198.25C176.876 197.604 176.97 196.802 177.033 195.844C177.116 194.885 177.178 193.75 177.22 192.438C177.283 191.104 177.314 189.552 177.314 187.781V180.219ZM196.066 190.781C196.066 189.135 196.4 187.708 197.066 186.5C197.754 185.292 198.66 184.26 199.785 183.406C200.91 182.552 202.191 181.865 203.629 181.344C205.066 180.802 206.556 180.385 208.098 180.094C209.639 179.781 211.16 179.573 212.66 179.469C214.16 179.344 215.535 179.271 216.785 179.25V177.656C216.785 176.281 216.608 175.094 216.254 174.094C215.9 173.094 215.4 172.271 214.754 171.625C214.108 170.958 213.327 170.469 212.41 170.156C211.514 169.823 210.525 169.656 209.441 169.656C208.691 169.656 207.952 169.719 207.223 169.844C206.493 169.969 205.733 170.177 204.941 170.469C204.17 170.76 203.348 171.156 202.473 171.656C201.618 172.156 200.691 172.792 199.691 173.562L199.379 173.375L201.504 168.969C202.191 168.656 202.868 168.406 203.535 168.219C204.202 168.01 204.879 167.844 205.566 167.719C206.254 167.594 206.952 167.51 207.66 167.469C208.389 167.406 209.15 167.375 209.941 167.375C212.129 167.375 213.993 167.646 215.535 168.188C217.098 168.708 218.368 169.438 219.348 170.375C220.348 171.292 221.077 172.375 221.535 173.625C221.993 174.854 222.223 176.177 222.223 177.594V187.781C222.223 189.552 222.243 191.104 222.285 192.438C222.348 193.75 222.41 194.885 222.473 195.844C222.556 196.802 222.65 197.604 222.754 198.25C222.879 198.896 223.004 199.438 223.129 199.875V200H216.223V199.875C216.327 199.542 216.4 199.167 216.441 198.75C216.504 198.333 216.556 197.833 216.598 197.25C216.16 197.625 215.639 198.01 215.035 198.406C214.452 198.802 213.775 199.167 213.004 199.5C212.254 199.812 211.41 200.062 210.473 200.25C209.556 200.458 208.545 200.562 207.441 200.562C203.816 200.562 201.014 199.719 199.035 198.031C197.056 196.323 196.066 193.906 196.066 190.781ZM216.785 181.688C214.889 181.708 213.066 181.823 211.316 182.031C209.566 182.219 208.014 182.625 206.66 183.25C205.327 183.875 204.254 184.771 203.441 185.938C202.65 187.083 202.254 188.615 202.254 190.531C202.254 192.99 202.868 194.865 204.098 196.156C205.327 197.448 207.025 198.094 209.191 198.094C210.191 198.094 211.098 197.958 211.91 197.688C212.743 197.396 213.473 197.042 214.098 196.625C214.743 196.188 215.285 195.719 215.723 195.219C216.16 194.698 216.493 194.198 216.723 193.719C216.764 192.927 216.785 192.052 216.785 191.094C216.785 190.115 216.785 189.01 216.785 187.781V181.688Z" fill="#FF7571"/>
</svg>
